<svg width="132" height="174" viewBox="0 0 132 174" fill="none" xmlns="http://www.w3.org/2000/svg">
<path d="M45.5277 127C45.5277 173.619 44.5307 171.993 54.5 171.993" stroke="black" fill="none" stroke-width="3" stroke-linecap="round"/>
<path d="M81.5277 127C81.5277 173.619 80.5307 171.993 90.5 171.993" stroke="black" fill="none" stroke-width="3" stroke-linecap="round"/>
<path d="M107.5 68.5C114.667 65.6667 129.2 54.8 130 34" stroke="black" fill="none" stroke-width="3" stroke-linecap="round"/>
<path d="M18.5 46C18.5 20.5949 39.0949 0 64.5 0C89.9051 0 110.5 20.5949 110.5 46V87C110.5 112.405 89.9051 133 64.5 133C39.0949 133 18.5 112.405 18.5 87V46Z" fill="#000"/>
<path d="M20.4815 67C0.481482 76.5 -9.01852 84 18.9815 87" stroke="black" fill="none" stroke-width="3" stroke-linecap="round"/>
<circle cx="51.0371" cy="40" r="10" fill="white"/>
<circle cx="78.0371" cy="40" r="10" fill="white"/>
<circle cx="51.0371" cy="40" r="6" fill="black"/>
<circle cx="78.0371" cy="40" r="6" fill="black"/>
<path d="M33.0401 47.5C33.0401 47.5 30.5401 70.5 65.0401 71C98.5371 71 97.0401 47.5 97.0401 47.5" stroke="black" stroke-width="3" stroke-linecap="round"/>
</svg>
