<svg width="30" height="30" viewBox="0 0 30 30" fill="none" xmlns="http://www.w3.org/2000/svg">
<path d="M7.5 12.5C7.5 11.4625 8.3375 10.625 9.375 10.625C10.4125 10.625 11.25 11.4625 11.25 12.5C11.25 13.5375 10.4125 14.375 9.375 14.375C8.3375 14.375 7.5 13.5375 7.5 12.5ZM13.75 22.5C16.6625 22.5 19.1375 20.675 20.1375 18.125H7.3625C8.3625 20.675 10.8375 22.5 13.75 22.5ZM18.125 14.375C19.1625 14.375 20 13.5375 20 12.5C20 11.4625 19.1625 10.625 18.125 10.625C17.0875 10.625 16.25 11.4625 16.25 12.5C16.25 13.5375 17.0875 14.375 18.125 14.375ZM26.25 1.875H23.75V4.375H21.25V6.875H23.75V9.375H26.25V6.875H28.75V4.375H26.25V1.875ZM23.75 15.625C23.75 21.15 19.275 25.625 13.75 25.625C8.225 25.625 3.75 21.15 3.75 15.625C3.75 10.1 8.225 5.625 13.75 5.625C15.575 5.625 17.275 6.125 18.75 6.975V4.175C17.2125 3.5 15.525 3.125 13.7375 3.125C6.8375 3.125 1.25 8.725 1.25 15.625C1.25 22.525 6.8375 28.125 13.7375 28.125C20.65 28.125 26.25 22.525 26.25 15.625C26.25 14.3125 26.0375 13.0625 25.6625 11.875H23C23.475 13.0375 23.75 14.3 23.75 15.625Z" fill="#000"/>
</svg>
