<svg width="30" height="26" viewBox="0 0 30 26" fill="none" xmlns="http://www.w3.org/2000/svg">
<path d="M6.41494 11.4833L4.9841 12.2778C4.65024 12.4704 4.29253 12.5185 3.91097 12.4222C3.52941 12.3259 3.24324 12.1093 3.05246 11.7722L0.190779 6.71667C0 6.37963 -0.0476948 6.01852 0.0476948 5.63333C0.143084 5.24815 0.357711 4.95926 0.691574 4.76667L8.91892 0H11.4229C11.6375 0 11.8104 0.0662037 11.9416 0.198611C12.0727 0.331019 12.1383 0.505556 12.1383 0.722222V1.44444C12.1383 2.23889 12.4185 2.91898 12.9789 3.48472C13.5393 4.05046 14.213 4.33333 15 4.33333C15.787 4.33333 16.4607 4.05046 17.0211 3.48472C17.5815 2.91898 17.8617 2.23889 17.8617 1.44444V0.722222C17.8617 0.505556 17.9273 0.331019 18.0584 0.198611C18.1896 0.0662037 18.3625 0 18.5771 0H21.0811L29.3084 4.76667C29.6423 4.95926 29.8569 5.24815 29.9523 5.63333C30.0477 6.01852 30 6.37963 29.8092 6.71667L26.9475 11.7722C26.7568 12.1093 26.4765 12.3199 26.1069 12.4042C25.7373 12.4884 25.3736 12.4343 25.0159 12.2417L23.5851 11.5194V24.5556C23.5851 24.9648 23.4479 25.3079 23.1737 25.5847C22.8994 25.8616 22.5596 26 22.1542 26H7.84579C7.44038 26 7.10056 25.8616 6.82631 25.5847C6.55207 25.3079 6.41494 24.9648 6.41494 24.5556V11.4833ZM9.27663 6.64444V23.1111H20.7234V6.64444L25.159 9.1L26.6614 6.57222L20.5087 2.96111C20.151 4.18889 19.4773 5.20602 18.4877 6.0125C17.498 6.81898 16.3355 7.22222 15 7.22222C13.6645 7.22222 12.502 6.81898 11.5123 6.0125C10.5227 5.20602 9.84897 4.18889 9.49126 2.96111L3.33863 6.57222L4.84102 9.1L9.27663 6.64444Z" fill="#000"/>
</svg>
