<svg width="67" height="67" viewBox="0 0 67 67" fill="none" xmlns="http://www.w3.org/2000/svg">
<path d="M33.5002 5.58325C18.0902 5.58325 5.5835 18.0899 5.5835 33.4999C5.5835 48.9099 18.0902 61.4166 33.5002 61.4166C48.9102 61.4166 61.4168 48.9099 61.4168 33.4999C61.4168 18.0899 48.9102 5.58325 33.5002 5.58325ZM11.1668 33.4999C11.1668 31.797 11.3902 30.122 11.7531 28.5308L25.0972 41.8749V44.6666C25.0972 47.7374 27.6097 50.2499 30.6806 50.2499V55.6378C19.7093 54.242 11.1668 44.862 11.1668 33.4999ZM49.9431 48.5749C49.2172 46.3137 47.1514 44.6666 44.6389 44.6666H41.8472V36.2916C41.8472 34.7562 40.591 33.4999 39.0556 33.4999H22.3056V27.9166H27.8889C29.4243 27.9166 30.6806 26.6603 30.6806 25.1249V19.5416H36.2639C39.3347 19.5416 41.8472 17.0291 41.8472 13.9583V12.8137C50.0268 16.1078 55.8335 24.1478 55.8335 33.4999C55.8335 39.3066 53.5722 44.6108 49.9431 48.5749Z" fill="#000"/>
</svg>
