<svg width="167" height="12" viewBox="0 0 167 12" fill="none" xmlns="http://www.w3.org/2000/svg">
<path d="M72.3543 0.759766H70.1895V10.6403H72.3543V0.759766Z" fill="white"/>
<path d="M64.2245 6.89963H66.7027L66.6906 6.94783C66.3934 8.27727 65.4897 9.03639 64.2125 9.03639C61.9191 9.03639 61.5777 6.88356 61.5777 5.5983C61.5777 3.56195 62.5979 2.34496 64.3129 2.34496C65.4134 2.34496 66.1725 2.9153 66.4577 3.95154L68.5422 3.81499C68.3534 2.28471 67.1244 0.521484 64.2687 0.521484C62.7826 0.521484 61.5255 1.02756 60.6378 1.97946C59.7743 2.91128 59.3164 4.19655 59.3164 5.69871C59.3164 8.93196 61.0114 10.8639 63.847 10.8639C65.1041 10.8639 66.1725 10.3538 66.8633 9.42599L66.9236 9.34565L67.0441 10.639H68.5904V5.1605H64.2245V6.90365V6.89963Z" fill="white"/>
<path d="M43.6164 0.517578C42.1384 0.517578 40.8933 1.02767 40.0217 1.99564C39.1782 2.92746 38.7324 4.21272 38.7324 5.71488C38.7324 8.74731 40.7166 10.868 43.5602 10.868C46.4039 10.868 48.5286 8.77944 48.5286 5.67472C48.5286 4.18461 48.0747 2.90336 47.2232 1.97957C46.3436 1.02767 45.0985 0.52561 43.6164 0.52561V0.517578ZM43.6325 9.04051C41.6885 9.04051 40.9977 7.2331 40.9977 5.68676C40.9977 4.80716 41.2146 3.99985 41.6082 3.40943C42.0741 2.71458 42.769 2.34507 43.6205 2.34507C44.4117 2.34507 46.2553 2.67844 46.2553 5.78316C46.2553 7.28532 45.5684 9.0365 43.6325 9.0365V9.04051Z" fill="white"/>
<path d="M35.1942 4.53926H31.5192V0.759766H29.3262V10.6403H31.5192V6.33863H35.1942V10.6403H37.3591V0.759766H35.1942V4.53926Z" fill="white"/>
<path d="M78.599 4.6718L82.4989 0.759766H79.7155L76.1489 4.63164V0.759766H73.9961V10.6403H76.1489V7.09373L76.161 7.08168L77.1089 6.14584L77.137 6.18601L80.073 10.6403H82.7399L78.5749 4.6959L78.599 4.6718Z" fill="white"/>
<path d="M55.9427 7.26632V7.41895L55.8704 7.29042L52.0146 0.763672H49.918V10.6442H52.0668C52.0105 8.35077 51.8981 4.26603 51.8981 4.22586V4.07725L51.9704 4.20578L55.8663 10.6482H57.9067V0.767686H55.7981C55.8061 1.23761 55.8985 5.70794 55.9386 7.27436L55.9427 7.26632Z" fill="white"/>
<path d="M114.217 8.09784L114.181 7.96932L112.073 0.759766H109.715L113.185 10.6403H115.205L118.664 0.759766H116.334L114.217 8.09784Z" fill="white"/>
<path d="M148.796 0.759766H146.631V10.6403H148.796V0.759766Z" fill="white"/>
<path d="M142.309 4.72282L141.012 4.4256C139.955 4.18862 139.317 3.99182 139.317 3.30099C139.317 2.61016 139.887 2.24466 140.923 2.24466C142.18 2.24466 142.807 2.72663 142.891 3.7669L145.028 3.60222C144.916 1.64219 143.486 0.517578 141.104 0.517578C139.622 0.517578 137.136 0.903157 137.136 3.48173C137.136 5.07626 138.052 5.92775 140.293 6.42178L141 6.57842C142.008 6.80334 142.964 7.01621 142.964 7.87172C142.964 8.2332 142.787 9.06863 141.148 9.06863C139.763 9.06863 139.011 8.50231 138.979 7.43393L136.814 7.55844C136.927 9.75544 138.349 10.868 141.048 10.868C142.293 10.868 145.185 10.5628 145.185 7.7191C145.185 5.35742 143.096 4.89954 142.309 4.72683V4.72282Z" fill="white"/>
<path d="M149.676 2.53102H152.652V10.6403H154.805V2.53102H157.781V0.759766H149.676V2.53102Z" fill="white"/>
<path d="M164.432 0.759766L162.376 4.87262L162.34 4.80033L160.392 0.759766H157.998L161.328 6.96922V10.6403H163.481L163.485 6.94913L166.81 0.759766H164.432Z" fill="white"/>
<path d="M121.752 6.29445H126.423V4.58344H121.752V2.51496H126.773V0.759766H119.604V10.6403H126.873V8.90114H121.752V6.29445Z" fill="white"/>
<path d="M135.521 8.03358C135.376 7.09775 135.151 6.16994 134.127 5.93699L133.958 5.89682L134.127 5.85666C135.203 5.61567 135.846 4.72 135.846 3.45481C135.846 2.74791 135.657 2.17356 135.263 1.70363C134.545 0.832061 133.283 0.759766 132.163 0.759766H128.082V10.6403H130.247V6.97324H131.484C131.821 6.97324 132.38 6.97324 132.641 7.08971C133.279 7.3789 133.364 8.07776 133.424 8.58785L133.452 8.80072C133.552 9.47549 133.661 10.078 134.026 10.6443H136.284C135.814 10.0016 135.685 9.15417 135.565 8.3308C135.549 8.23039 135.537 8.13399 135.521 8.0376V8.03358ZM131.456 5.24615H130.247V2.57119H132.05C132.878 2.57119 133.725 2.7198 133.725 3.82433C133.725 5.24615 132.468 5.24615 131.456 5.24615Z" fill="white"/>
<path d="M108.819 0.759766H106.654V10.6403H108.819V0.759766Z" fill="white"/>
<path d="M102.988 7.26632V7.41895L102.915 7.29042L99.0595 0.763672H96.9629V10.6442H99.1117C99.0555 8.35077 98.943 4.26603 98.943 4.22586V4.07725L99.0153 4.20578L102.911 10.6482H104.952V0.767686H102.843C102.851 1.23761 102.943 5.70794 102.984 7.27436L102.988 7.26632Z" fill="white"/>
<path d="M93.1949 6.3345C93.1949 7.8447 93.1949 9.0416 91.4357 9.0416C89.6765 9.0416 89.6203 7.81256 89.6203 6.39475V0.763672H87.4434V7.19804C87.4434 7.90093 87.5157 8.45118 87.6683 8.87693C88.0016 9.78465 88.9094 10.8691 91.3393 10.8691C91.9699 10.8691 93.5283 10.7807 94.4159 9.97744C95.3759 9.0898 95.3759 7.94109 95.3759 6.83255V0.763672H93.1989V6.33852L93.1949 6.3345Z" fill="white"/>
<path d="M17.9402 2.44141H5.74219V8.13273H17.9402V2.44141Z" fill="white"/>
<path d="M18.7515 8.94406H5.74219V11.3861H23.6315V2.44141H18.7515V8.94406Z" fill="white"/>
<path d="M1.67265 8.13334V0.811324H17.9393V2.44201H18.7507V0H0.861328V8.94466H5.74133V8.13334H1.67265Z" fill="white"/>
</svg>
